<?xml version="1.0" standalone="no"?>
<!DOCTYPE svg PUBLIC "-//W3C//DTD SVG 20010904//EN"
 "http://www.w3.org/TR/2001/REC-SVG-20010904/DTD/svg10.dtd">
<svg version="1.0" xmlns="http://www.w3.org/2000/svg"
 width="700.000000pt" height="700.000000pt" viewBox="0 0 700.000000 700.000000"
 preserveAspectRatio="xMidYMid meet">
<metadata>
Created by potrace 1.11, written by Peter Selinger 2001-2013
</metadata>
<g transform="translate(0.000000,700.000000) scale(0.100000,-0.100000)"
fill="#000000" stroke="none">
<path d="M420 6993 c-148 -25 -293 -130 -359 -261 -65 -129 -61 116 -61 -3233
0 -2145 3 -3063 11 -3105 26 -145 133 -285 267 -352 l76 -37 3156 0 3156 0 70
35 c92 46 181 136 225 226 l34 69 3 3148 2 3148 -22 52 c-66 158 -204 272
-366 306 -38 8 -926 11 -3110 10 -1681 -1 -3068 -4 -3082 -6z m2240 -1288 l0
-885 780 0 780 0 0 -525 0 -525 -780 0 -780 0 2 -1027 c3 -1020 3 -1028 24
-1073 25 -54 71 -95 122 -110 24 -6 257 -10 645 -10 l607 0 0 -525 0 -525
-932 0 c-566 0 -961 4 -1003 10 -105 15 -188 46 -270 102 -131 87 -217 206
-267 368 l-22 75 -4 1357 -3 1358 -637 2 -637 3 0 520 0 520 638 3 637 2 0
885 0 885 550 0 550 0 0 -885z m-1330 -145 l0 -520 -510 0 -510 0 0 520 0 520
510 0 510 0 0 -520z"/>
</g>
</svg>
