<?xml version="1.0" standalone="no"?>
<!DOCTYPE svg PUBLIC "-//W3C//DTD SVG 20010904//EN"
 "http://www.w3.org/TR/2001/REC-SVG-20010904/DTD/svg10.dtd">
<svg version="1.0" xmlns="http://www.w3.org/2000/svg"
 width="700.000000pt" height="700.000000pt" viewBox="0 0 700.000000 700.000000"
 preserveAspectRatio="xMidYMid meet">
<metadata>
Created by potrace 1.11, written by Peter Selinger 2001-2013
</metadata>
<g transform="translate(0.000000,700.000000) scale(0.100000,-0.100000)"
fill="#000000" stroke="none">
<path d="M810 6990 c-384 -32 -695 -304 -786 -687 -14 -58 -17 -163 -21 -740
l-5 -673 506 0 506 0 0 660 0 660 250 0 250 0 0 -660 0 -660 625 0 625 0 -2
-227 -3 -228 -623 -3 -622 -2 2 -1083 c3 -1061 3 -1083 23 -1116 11 -19 33
-43 48 -55 28 -21 38 -21 523 -24 l494 -3 0 -229 0 -230 -588 0 c-499 0 -597
2 -647 16 -148 38 -275 160 -329 317 -21 62 -21 65 -24 1234 l-3 1173 -504 2
-505 3 0 -1755 c0 -1094 4 -1798 10 -1869 34 -381 291 -684 665 -782 l90 -24
2735 0 2735 0 89 23 c236 63 433 209 550 409 71 120 125 317 126 456 0 16 -78
17 -1505 17 l-1505 0 0 230 0 230 1505 0 1505 0 -3 2433 c-2 2202 -4 2438 -19
2497 -84 338 -315 577 -646 668 l-97 27 -2670 1 c-1468 1 -2708 -2 -2755 -6z"/>
</g>
</svg>
